<svg version="1.2" xmlns="http://www.w3.org/2000/svg" viewBox="0 0 494 72" width="494" height="72">
	<title>cineware-logo</title>
	<style>
		.s0 { fill: #ad241b } 
	</style>
	<path id="CINEWARE" class="s0" aria-label="CINEWARE"  d="m0.7 36c0 20.9 13.7 35.5 33.2 35.5 15.6 0 27.4-9.2 31.2-24.4h-17.6c-2.8 6-7.7 9-13.8 9-9.9 0-16.6-7.8-16.6-20.1 0-12.3 6.7-20.1 16.6-20.1 6.1 0 11 3 13.8 9h17.6c-3.8-15.1-15.6-24.5-31.2-24.5-19.5 0-33.2 14.7-33.2 35.6zm74.3 35h16v-69.8h-16zm70.5-69.7v43.2l-26.8-43.2h-16.1v69.7h16.1v-43l26.8 43h16v-69.7zm68.1 0h-40.4v69.7h40.4v-13.6h-24.3v-15.3h21.4v-13.1h-21.4v-14.1h24.3zm23.6 69.7h19.4l10.9-45.9 10.5 45.9h19.4l17.2-69.7h-17.3l-9.5 50.8-11.3-50.8h-17.6l-11.8 50.8-9.4-50.8h-17.2zm130.4 0h17l-23.8-69.8h-18.6l-23.8 69.8h16.7l4-12.3h24.6zm-8.1-25.5h-16.2l8-25.5zm67.1-21.7c0 5.5-2.8 8.7-8.8 8.7h-10v-17.2h10c6 0 8.8 3.3 8.8 8.5zm-34.8-22.7v69.8h16v-26.3h3.9l13.7 26.3h18.1l-15.2-27.6c10.1-3.2 14.6-11.5 14.6-20.2 0-12.1-8-22-24.2-22zm101.5 0h-40.3v69.8h40.3v-13.6h-24.3v-15.3h21.5v-13.1h-21.5v-14.1h24.3z"/>
</svg>